<?xml version="1.0" standalone="no"?><!DOCTYPE svg PUBLIC "-//W3C//DTD SVG 1.1//EN" "http://www.w3.org/Graphics/SVG/1.1/DTD/svg11.dtd"><svg t="1551270390089" class="icon" style="" viewBox="0 0 1024 1024" version="1.1" xmlns="http://www.w3.org/2000/svg" p-id="18416" xmlns:xlink="http://www.w3.org/1999/xlink" width="16" height="16"><defs><style type="text/css"></style></defs><path d="M950.857143 1024H73.142857a73.142857 73.142857 0 0 1-73.142857-73.142857V73.142857a73.142857 73.142857 0 0 1 73.142857-73.142857h877.714286a73.362286 73.362286 0 0 1 73.142857 73.142857v877.714286a73.362286 73.362286 0 0 1-73.142857 73.142857z m-579.291429-170.057143h58.148572v-38.034286h325.851428v38.034286h57.782857v-341.211428H371.565714v341.211428zM876.982857 343.771429H297.691429V231.131429a3010.962286 3010.962286 0 0 0 531.017142-54.857143l-28.891428-52.297143A2859.629714 2859.629714 0 0 1 240.64 179.565714v241.371429q-7.68 246.857143-95.085714 386.194286l42.788571 44.251428q102.034286-161.828571 109.348572-430.445714v-20.845714h579.291428V343.771429z m-447.268571 224.548571h325.851428v191.268571h-325.851428v-191.268571z" fill="#FFA71C" p-id="18417"></path></svg>