<?xml version="1.0" standalone="no"?><!DOCTYPE svg PUBLIC "-//W3C//DTD SVG 1.1//EN" "http://www.w3.org/Graphics/SVG/1.1/DTD/svg11.dtd"><svg t="1551270403899" class="icon" style="" viewBox="0 0 1024 1024" version="1.1" xmlns="http://www.w3.org/2000/svg" p-id="19140" xmlns:xlink="http://www.w3.org/1999/xlink" width="16" height="16"><defs><style type="text/css"></style></defs><path d="M950.857143 1024H73.142857a73.142857 73.142857 0 0 1-73.142857-73.142857V73.142857a73.142857 73.142857 0 0 1 73.142857-73.142857h877.714286a73.362286 73.362286 0 0 1 73.142857 73.142857v877.714286a73.362286 73.362286 0 0 1-73.142857 73.142857z m-309.76-177.371429h107.154286a64.658286 64.658286 0 0 0 71.68-74.24V315.611429h-58.148572v442.514285a31.378286 31.378286 0 0 1-33.645714 36.937143c-28.525714 0-61.44-1.462857-99.108572-4.022857z m-46.445714-123.977142h56.32v-346.697143h-56.32v346.697143zM212.48 855.405714h56.32v-176.274285h179.2v74.971428a32.219429 32.219429 0 0 1-31.451429 40.228572l-60.342857-2.56 15.36 57.051428h63.634286c46.08 0 69.12-27.062857 69.12-81.92V337.92H212.48v517.485714zM876.251429 216.502857h-217.234286a609.536 609.536 0 0 0 54.491428-86.674286l-56.32-19.382857a767.158857 767.158857 0 0 1-61.805714 106.057143h-156.891428a1216 1216 0 0 0-53.028572-101.302857l-61.44 10.605714a631.259429 631.259429 0 0 1 52.297143 90.697143H156.16v56.32h720.091429V216.502857zM268.8 536.137143h179.2v91.428571h-179.2v-91.428571z m0-144.091429h179.2v92.525715h-179.2v-92.525715z" fill="#24CA4F" p-id="19141"></path></svg>