<?xml version="1.0" standalone="no"?><!DOCTYPE svg PUBLIC "-//W3C//DTD SVG 1.1//EN" "http://www.w3.org/Graphics/SVG/1.1/DTD/svg11.dtd"><svg t="1551326038572" class="icon" style="" viewBox="0 0 1024 1024" version="1.1" xmlns="http://www.w3.org/2000/svg" p-id="8388" xmlns:xlink="http://www.w3.org/1999/xlink" width="16" height="16"><defs><style type="text/css"></style></defs><path d="M880.258405 156.309481a511.986509 511.986509 0 1 0-12.594868 724.000123 511.986509 511.986509 0 0 0 12.594868-724.000123z m-155.183111 517.106374c18.738706 18.738706 20.88905 41.522106 5.119865 57.086496s-38.34779 13.362848-57.086495-5.375858L511.986509 563.748345l-161.378148 161.378148c-18.738706 18.738706-41.573305 20.88905-57.086495 5.375858s-13.362848-38.34779 5.375858-57.086496L460.275872 511.986509 298.897724 350.608361c-18.738706-18.687508-20.88905-41.522106-5.375858-57.035297s38.34779-13.362848 57.086495 5.119865L511.986509 460.275872l161.378148-161.378148c18.738706-18.687508 41.573305-20.837851 57.086496-5.119865s13.362848 38.34779-5.119865 57.035297L563.697147 511.986509z" p-id="8389" fill="#d81e06"></path></svg>