<?xml version="1.0" standalone="no"?><!DOCTYPE svg PUBLIC "-//W3C//DTD SVG 1.1//EN" "http://www.w3.org/Graphics/SVG/1.1/DTD/svg11.dtd"><svg t="1551326711975" class="icon" style="" viewBox="0 0 1024 1024" version="1.1" xmlns="http://www.w3.org/2000/svg" p-id="49952" xmlns:xlink="http://www.w3.org/1999/xlink" width="16" height="16"><defs><style type="text/css"></style></defs><path d="M383.977 638.04c-135.863-8.32-252.016-42.877-319.98-91.13v93.05c0 63.42 138.36 116.089 319.98 126.2v63.868c-135.863-8.32-252.016-42.813-319.98-91.13v93.05H0.001V223.986C0.001 100.282 200.565 0 447.973 0s447.972 100.282 447.972 223.986v202.1H831.95v-86.651c-78.395 65.02-221.042 108.537-383.976 108.537s-305.58-43.517-383.976-108.537v108.537c0 63.42 138.36 116.089 319.98 126.2v63.868z m63.996 385.896C200.565 1023.936 0.001 937.989 0.001 831.948h63.996c0 70.716 171.894 127.992 383.976 127.992v63.996z m0-639.96c212.083 0 383.976-71.676 383.976-159.99S660.056 63.996 447.973 63.996 63.997 135.672 63.997 223.986s171.894 159.99 383.976 159.99z m556.893 419.814l-44.54-25.919c2.495-13.63 4.095-27.518 4.095-41.917a231.666 231.666 0 0 0-4.096-41.917l44.541-25.983a38.59 38.59 0 0 0 13.952-52.476l-38.078-66.492a37.886 37.886 0 0 0-52.029-14.08l-45.053 26.239a227.826 227.826 0 0 0-71.547-42.237V486.37c0-21.183-17.023-38.398-38.078-38.398h-76.155A38.27 38.27 0 0 0 659.8 486.37v32.638a227.826 227.826 0 0 0-71.547 42.237l-45.054-26.238a37.886 37.886 0 0 0-52.028 14.079l-38.078 66.556a38.59 38.59 0 0 0 13.951 52.476l44.541 25.919a231.666 231.666 0 0 0-4.095 41.917c0 14.4 1.6 28.286 4.095 41.917l-44.54 25.983a38.59 38.59 0 0 0-13.952 52.476l38.078 66.492a37.886 37.886 0 0 0 52.028 14.08l45.054-26.239c21.054 18.047 44.925 32.766 71.547 42.237v32.638c0 21.183 17.023 38.398 38.078 38.398h76.155a38.27 38.27 0 0 0 38.078-38.398V952.9a227.826 227.826 0 0 0 71.547-42.237l45.053 26.238a37.95 37.95 0 0 0 52.029-14.079l38.078-66.556a38.59 38.59 0 0 0-13.952-52.476z m-47.293 37.821l-17.534 29.887a17.727 17.727 0 0 1-23.999 6.271l-48.765-27.646a175.989 175.989 0 0 1-96.186 54.652v37.95c0 9.471-7.871 17.215-17.599 17.215h-35.07a17.407 17.407 0 0 1-17.599-17.279v-37.886a175.989 175.989 0 0 1-96.186-54.652l-48.764 27.646a17.727 17.727 0 0 1-23.999-6.271l-17.535-29.887a17.023 17.023 0 0 1 6.4-23.486l48.957-27.774a168.245 168.245 0 0 1-9.28-54.397c0-19.07 3.456-37.246 9.344-54.397l-49.021-27.774a17.023 17.023 0 0 1-6.4-23.486l17.535-29.887a17.727 17.727 0 0 1 23.999-6.271l48.764 27.646a175.989 175.989 0 0 1 96.186-54.652v-37.95c0-9.535 7.872-17.215 17.6-17.215h35.07c9.727 0 17.598 7.68 17.598 17.279v37.886a175.989 175.989 0 0 1 96.186 54.652l48.765-27.646a17.727 17.727 0 0 1 23.999 6.271l17.534 29.887a17.023 17.023 0 0 1-6.4 23.486l-48.956 27.774c5.76 17.151 9.28 35.326 9.28 54.397 0 19.07-3.456 37.246-9.28 54.397l48.957 27.774a17.023 17.023 0 0 1 6.4 23.486zM735.955 639.96a95.994 95.994 0 1 0 0 191.988 95.994 95.994 0 0 0 0-191.988z m0 127.992a31.998 31.998 0 1 1 0-63.996 31.998 31.998 0 0 1 0 63.996z" p-id="49953" fill="#115725"></path></svg>