<?xml version="1.0" standalone="no"?><!DOCTYPE svg PUBLIC "-//W3C//DTD SVG 1.1//EN" "http://www.w3.org/Graphics/SVG/1.1/DTD/svg11.dtd"><svg t="1551328251835" class="icon" style="" viewBox="0 0 1024 1024" version="1.1" xmlns="http://www.w3.org/2000/svg" p-id="79942" xmlns:xlink="http://www.w3.org/1999/xlink" width="16" height="16"><defs><style type="text/css"></style></defs><path d="M511.436 0C228.903 0 0 228.956 0 511.436c0 282.449 228.901 511.382 511.436 511.382 282.483 0 511.436-228.93 511.436-511.382C1022.873 228.953 793.887 0 511.436 0zM409.509 528.411 640.731 300.39l79.706 82.185L492.365 614.381l-82.854-85.976L409.509 528.411zM472.425 625.581l-125.901 53.577 48.628-129.598 77.273 76.025L472.425 625.581zM752.449 774.976l-0.052 0c0 6.914-5.668 12.577-12.577 12.577L244.533 787.553c-6.99 0-12.577-5.668-12.577-12.577L231.956 283.414c0-6.99 5.583-12.577 12.577-12.577L596.54 270.837l-51.532 54.741L297.474 325.578c-5.724 0-10.422 4.78-10.422 10.562l0 386.234c0 5.778 4.696 10.476 10.422 10.476l389.27 0c5.778 0 10.532-4.696 10.532-10.476L697.276 475.112l55.179-51.145 0 351.008L752.449 774.976zM786.14 319.717c-10.812 12.133-46.004 47.662-46.004 47.662l-83.515-83.156 41.027-40.999c0 0 18.769-17.861 43.074 0 24.297 17.696 45.365 40.999 45.365 40.999s10.894 23.332 0.052 35.498L786.14 319.717z" p-id="79943" fill="#3bae2c"></path></svg>