<?xml version="1.0" standalone="no"?><!DOCTYPE svg PUBLIC "-//W3C//DTD SVG 1.1//EN" "http://www.w3.org/Graphics/SVG/1.1/DTD/svg11.dtd"><svg t="1629784003938" class="icon" viewBox="0 0 1024 1024" version="1.1" xmlns="http://www.w3.org/2000/svg" p-id="6105" width="16" height="16" xmlns:xlink="http://www.w3.org/1999/xlink"><defs><style type="text/css"></style></defs><path d="M363.776 615.168h-10.752l-8.6528-8.1664a33.2288 33.2288 0 0 1-8.32-24.8832c2.5088-69.9904 33.8688-412.4416 397.696-427.52V44.4672a43.264 43.264 0 0 1 9.4208-31.488C754.4832 0.256 772.48-2.816 793.344 6.4l4.7872 2.048 204.3648 221.8752c4.1472 4.7104 21.504 26.4704 21.504 51.7888 0 26.5984-21.5808 49.28-25.8048 53.376L793.6 570.6752c-5.248 5.5808-17.8688 17.0752-34.1248 17.0752a33.92 33.92 0 0 1-30.0032-18.9184c-4.352-8.192-6.272-18.4832-6.272-32.2304v-133.504c-58.88-1.536-231.04 10.6752-331.392 193.3568-6.528 11.8784-16.768 18.7392-28.032 18.7392z" fill="#D4F3FF" p-id="6106"></path><path d="M1002.5472 230.2208L798.208 8.3712l-4.8128-2.048a57.6 57.6 0 0 0-22.9632-5.3248 35.072 35.072 0 0 0-27.264 12.032c-9.728 11.008-9.856 25.1136-9.4208 31.4624V154.624c-363.8272 15.0272-395.1872 357.4784-397.696 427.4688-0.768 9.088 2.2528 18.0736 8.32 24.8832l8.6528 8.2432h10.752c11.3152 0 21.504-6.8352 28.032-18.7392 95.872-174.464 257.152-193.4592 322.816-193.4592l8.6272 0.128v133.504c0 13.7472 1.8688 24.0384 6.272 32.2304 5.632 11.4432 17.2544 18.7648 30.0288 18.9184 16.256 0 28.8512-11.52 34.0992-17.0752l204.544-235.2896c4.224-4.1472 25.8048-26.7776 25.8048-53.376 0-25.344-17.3568-47.0784-21.4528-51.8656z m-48.9472 59.3408l-1.92 1.92-1.792 2.048-162.6368 187.008v-139.6992l-62.336-1.6128-10.2912-0.128c-58.9568 0-185.344 13.184-291.6608 112.7936 33.664-104.7808 115.5328-225.1264 313.4208-233.3184l61.3632-2.56V102.2976l155.8528 169.1904c2.944 3.456 5.632 8.32 6.4512 8.32l0.2048-0.0768a35.0976 35.0976 0 0 1-6.656 9.856z" fill="#1B7AFF" p-id="6107"></path><path d="M928 512.512c-17.664 0-32 14.3104-32 31.9488v351.6672c0 35.328-28.672 63.9232-64 63.9232H128c-35.328 0-64-28.6208-64-63.9232V192.8192c0-35.328 28.672-63.9488 64-63.9488h352a32 32 0 1 0 0-63.9232H128c-70.6048 0-128 57.344-128 127.872v703.3088A128.0768 128.0768 0 0 0 128 1024h704c70.5792 0 128-57.344 128-127.872V544.4608c0-17.664-14.336-31.9488-32-31.9488z" fill="#1B7AFF" p-id="6108"></path></svg>
