<?xml version="1.0" standalone="no"?><!DOCTYPE svg PUBLIC "-//W3C//DTD SVG 1.1//EN" "http://www.w3.org/Graphics/SVG/1.1/DTD/svg11.dtd"><svg t="1551326831356" class="icon" style="" viewBox="0 0 1024 1024" version="1.1" xmlns="http://www.w3.org/2000/svg" p-id="52494" xmlns:xlink="http://www.w3.org/1999/xlink" width="16" height="16"><defs><style type="text/css"></style></defs><path d="M249.856 929.792C112.64 929.792 0 819.2 0 679.936 0 542.72 112.64 430.08 249.856 430.08s249.856 112.64 249.856 249.856c-2.048 139.264-112.64 249.856-249.856 249.856z m0-428.032c-98.304 0-178.176 79.872-178.176 178.176 0 98.304 79.872 178.176 178.176 178.176s178.176-79.872 178.176-178.176c0-98.304-79.872-178.176-178.176-178.176z m0 0" p-id="52495" fill="#13227a"></path><path d="M247.808 790.528c-61.44 0-110.592-49.152-110.592-110.592 0-61.44 49.152-110.592 110.592-110.592 61.44 0 110.592 49.152 110.592 110.592 0 61.44-49.152 110.592-110.592 110.592z m0-149.504c-22.528 0-38.912 18.432-38.912 38.912 0 22.528 18.432 38.912 38.912 38.912 22.528 0 38.912-18.432 38.912-38.912 2.048-22.528-16.384-38.912-38.912-38.912z m0 0" p-id="52496" fill="#13227a"></path><path d="M774.144 929.792c-137.216 0-249.856-112.64-249.856-249.856 0-137.216 112.64-249.856 249.856-249.856C911.36 430.08 1024 542.72 1024 679.936c0 139.264-112.64 249.856-249.856 249.856z m0-428.032c-98.304 0-178.176 79.872-178.176 178.176 0 98.304 79.872 178.176 178.176 178.176 98.304 0 178.176-79.872 178.176-178.176 2.048-98.304-79.872-178.176-178.176-178.176z m0 0" p-id="52497" fill="#13227a"></path><path d="M774.144 790.528c-61.44 0-110.592-49.152-110.592-110.592 0-61.44 49.152-110.592 110.592-110.592 61.44 0 110.592 49.152 110.592 110.592 0 61.44-49.152 110.592-110.592 110.592z m0-149.504c-22.528 0-38.912 18.432-38.912 38.912 0 22.528 18.432 38.912 38.912 38.912 22.528 0 38.912-18.432 38.912-38.912 0-22.528-16.384-38.912-38.912-38.912z m0 0" p-id="52498" fill="#13227a"></path><path d="M512 653.312c-18.432 0-34.816-16.384-34.816-34.816V247.808c0-18.432-6.144-34.816-16.384-49.152s-26.624-24.576-43.008-30.72c-22.528-8.192-45.056-4.096-65.536 8.192-14.336 8.192-22.528 20.48-24.576 22.528L100.352 583.68c-10.24 16.384-30.72 22.528-49.152 12.288-16.384-10.24-22.528-30.72-12.288-49.152L266.24 161.792s0-2.048 2.048-2.048c2.048-2.048 16.384-24.576 45.056-43.008 38.912-24.576 81.92-30.72 124.928-16.384 30.72 10.24 57.344 28.672 77.824 53.248 20.48 26.624 32.768 59.392 32.768 92.16v370.688c-2.048 20.48-18.432 36.864-36.864 36.864z m0 0" p-id="52499" fill="#13227a"></path><path d="M512 503.808c-18.432 0-34.816-16.384-34.816-34.816 0-30.72-8.192-63.488-22.528-90.112-16.384-30.72-40.96-53.248-71.68-61.44-67.584-22.528-141.312 20.48-141.312 22.528-16.384 10.24-38.912 6.144-49.152-10.24s-6.144-38.912 10.24-49.152c4.096-2.048 100.352-61.44 200.704-28.672 47.104 16.384 86.016 49.152 112.64 96.256 20.48 36.864 30.72 81.92 30.72 122.88 0 16.384-16.384 32.768-34.816 32.768z m0 0M561.152 665.6h-98.304c-18.432 0-34.816-16.384-34.816-34.816 0-18.432 16.384-34.816 34.816-34.816h98.304c18.432 0 34.816 16.384 34.816 34.816 0 18.432-16.384 34.816-34.816 34.816z m0 0M587.776 821.248h-153.6c-18.432 0-34.816-16.384-34.816-34.816 0-18.432 16.384-34.816 34.816-34.816h153.6c18.432 0 34.816 16.384 34.816 34.816 2.048 18.432-14.336 34.816-34.816 34.816z m0 0" p-id="52500" fill="#13227a"></path><path d="M516.096 657.408c-18.432 0-34.816-16.384-34.816-34.816V249.856c0-32.768 10.24-65.536 32.768-92.16 20.48-24.576 47.104-43.008 77.824-53.248 40.96-14.336 83.968-8.192 122.88 18.432 26.624 16.384 43.008 38.912 45.056 40.96 0 0 0 2.048 2.048 2.048l227.328 385.024c10.24 16.384 4.096 38.912-12.288 49.152s-38.912 4.096-49.152-12.288L700.416 202.752c-2.048-2.048-12.288-14.336-26.624-24.576-20.48-12.288-40.96-14.336-63.488-8.192-16.384 6.144-32.768 16.384-43.008 30.72s-16.384 30.72-16.384 49.152v370.688c0 20.48-16.384 36.864-34.816 36.864z m0 0" p-id="52501" fill="#13227a"></path><path d="M516.096 505.856c-18.432 0-34.816-16.384-34.816-34.816 0-40.96 12.288-86.016 30.72-122.88 26.624-47.104 63.488-79.872 112.64-96.256 100.352-32.768 196.608 26.624 200.704 28.672l-36.864 59.392s-71.68-45.056-141.312-22.528c-30.72 10.24-55.296 30.72-71.68 61.44-14.336 26.624-22.528 59.392-22.528 90.112-2.048 22.528-18.432 36.864-36.864 36.864z m0 0" p-id="52502" fill="#13227a"></path></svg>