<?xml version="1.0" standalone="no"?><!DOCTYPE svg PUBLIC "-//W3C//DTD SVG 1.1//EN" "http://www.w3.org/Graphics/SVG/1.1/DTD/svg11.dtd"><svg t="1551327109317" class="icon" style="" viewBox="0 0 1024 1024" version="1.1" xmlns="http://www.w3.org/2000/svg" p-id="1457" xmlns:xlink="http://www.w3.org/1999/xlink" width="16" height="16"><defs><style type="text/css"></style></defs><path d="M876.479155 247.554142 540.475542 247.554142l-28.018124-40.447201c-28.67611-53.323463-36.21583-80.893378-80.893378-80.893378l-283.128359 0c-44.677549 0-80.893378 36.21583-80.893378 80.893378l0 121.340579 0 40.447201 0 444.915116c0 44.677549 36.21583 80.893378 80.893378 80.893378l728.043475 0c44.677549 0 80.893378-36.21583 80.893378-80.893378L957.372533 328.447521C957.373557 283.769972 921.156704 247.554142 876.479155 247.554142zM673.588235 609.247858 528.826224 609.247858l0 144.762011c0 9.038864-7.326872 16.368806-16.368806 16.368806-9.038864 0-16.368806-7.329942-16.368806-16.368806L496.088612 609.247858 351.327624 609.247858c-9.038864 0-16.368806-7.326872-16.368806-16.368806 0-9.038864 7.329942-16.368806 16.368806-16.368806l144.762011 0L496.089635 431.749258c0-9.038864 7.329942-16.368806 16.368806-16.368806 9.041934 0 16.368806 7.329942 16.368806 16.368806l0 144.762011 144.762011 0c9.038864 0 16.368806 7.329942 16.368806 16.368806C689.956018 601.922009 682.626076 609.247858 673.588235 609.247858z" p-id="1458" fill="#33b5af"></path></svg>