<?xml version="1.0" standalone="no"?><!DOCTYPE svg PUBLIC "-//W3C//DTD SVG 1.1//EN" "http://www.w3.org/Graphics/SVG/1.1/DTD/svg11.dtd"><svg t="1565666037588" class="icon" viewBox="0 0 1024 1024" version="1.1" xmlns="http://www.w3.org/2000/svg" p-id="1105" xmlns:xlink="http://www.w3.org/1999/xlink" width="16" height="16"><defs><style type="text/css"></style></defs><path d="M511.488 1022.976A511.488 511.488 0 1 0 511.488 0a511.488 511.488 0 1 0 0 1022.976z m65.856-308.608v126.976h-128v-126.976h128z m8.256-358.976c-1.984-63.04-58.24-75.008-58.24-75.008-76.992-7.04-102.016 28.992-110.976 110.976h-131.84c0-160.896 102.72-235.264 236.736-231.232 102.336 2.112 195.328 83.264 191.04 210.24-13.76 65.024-20.224 65.344-76.352 123.392-57.216 60.928-58.624 82.24-58.624 123.136v34.368h-128v-49.792c8.384-45.76 7.424-66.816 77.376-151.808 0 0 60.416-47.296 58.88-94.272z" p-id="1106" fill="#9575cd"></path></svg>
