<svg t="1629899119126" class="icon" viewBox="0 0 1024 1024" version="1.1" xmlns="http://www.w3.org/2000/svg" p-id="12000" width="16" height="16"><path d="M66.706368 841.287537h889.883293c44.478165 0 66.717248 22.207084 66.717248 66.685249v49.341965c0 44.478165-22.239083 66.685249-66.717248 66.685249H66.706368C22.228203 1024 0.021119 1001.760917 0.021119 957.314751v-49.341965c0-44.478165 22.239083-66.685249 66.685249-66.685249z m504.715181-143.258091l226.742647-277.044572a19.199208 19.199208 0 0 0-14.975383-31.422703h-99.579892C683.608921 66.151511 396.004785 8.393894 240.843185 0.714211a18.943219 18.943219 0 0 0-10.047585 36.542492c115.323243 61.949445 166.105148 167.225102 172.152898 332.210296a19.199208 19.199208 0 0 1-19.199208 19.359202h-79.676713a19.199208 19.199208 0 0 0-14.78339 32.158673l226.742647 277.748543a36.574491 36.574491 0 0 0 55.357716-0.703971z" fill="#36B389" p-id="12001"></path></svg>
