<?xml version="1.0" standalone="no"?><!DOCTYPE svg PUBLIC "-//W3C//DTD SVG 1.1//EN" "http://www.w3.org/Graphics/SVG/1.1/DTD/svg11.dtd"><svg t="1551327176743" class="icon" style="" viewBox="0 0 1024 1024" version="1.1" xmlns="http://www.w3.org/2000/svg" p-id="1630" xmlns:xlink="http://www.w3.org/1999/xlink" width="16" height="16"><defs><style type="text/css"></style></defs><path d="M495.4 736.5c12.7 16 36.9 16 49.7 0l250.2-314.4c16.5-20.8 1.7-51.5-24.8-51.5H679c-17.5 0-31.7-14.2-31.7-31.7V217.7c0-17.5-14.2-31.7-31.7-31.7H425.1c-17.5 0-31.7 14.2-31.7 31.7V339c0 17.5-14.2 31.7-31.7 31.7h-91.4c-26.6 0-41.4 30.7-24.8 51.5l249.9 314.3zM425.1 151.7h190.5c17.5 0 31.7-14.2 31.7-31.7V99.6c0-17.5-14.2-31.7-31.7-31.7H425.1c-17.5 0-31.7 14.2-31.7 31.7V120c0 17.5 14.2 31.7 31.7 31.7z" p-id="1631"></path><path d="M905.1 532.3c-44.2 0-80 35.8-80 80v224.3H215.6V612.3c0-44.2-35.8-80-80-80s-80 35.8-80 80v250.8c0 73.6 59.9 133.5 133.5 133.5h662.4c73.6 0 133.5-59.9 133.5-133.5V612.3c0-44.2-35.8-80-79.9-80z" p-id="1632"></path></svg>