<?xml version="1.0" standalone="no"?><!DOCTYPE svg PUBLIC "-//W3C//DTD SVG 1.1//EN" "http://www.w3.org/Graphics/SVG/1.1/DTD/svg11.dtd"><svg t="1551328088527" class="icon" style="" viewBox="0 0 1024 1024" version="1.1" xmlns="http://www.w3.org/2000/svg" p-id="75641" xmlns:xlink="http://www.w3.org/1999/xlink" width="16" height="16"><defs><style type="text/css"></style></defs><path d="M676.297143 0H145.609143C130.834286 0 118.857143 11.977143 118.857143 35.218286V1005.714286c0 6.308571 11.977143 18.285714 26.752 18.285714h732.781714c14.774857 0 26.752-11.977143 26.752-18.285714V237.312c0-12.726857-1.700571-16.822857-4.699428-19.84L687.670857 4.699429A16.164571 16.164571 0 0 0 676.297143 0z" fill="#E9E9E0" p-id="75642"></path><path d="M685.714286 2.761143V219.428571h216.667428z" fill="#D9D7CA" p-id="75643"></path><path d="M878.390857 1024H145.609143A26.752 26.752 0 0 1 118.857143 997.248V713.142857h786.285714v284.105143c0 14.774857-11.977143 26.752-26.752 26.752z" fill="#EEAF4B" p-id="75644"></path><path d="M475.812571 781.147429v143.506285c0 8.667429-1.590857 15.963429-4.754285 21.869715a39.332571 39.332571 0 0 1-12.745143 14.244571c-5.339429 3.584-11.465143 6.089143-18.377143 7.497143s-14.061714 2.121143-21.376 2.121143c-3.675429 0-7.972571-0.384-12.873143-1.133715s-10.002286-1.901714-15.250286-3.492571-10.294857-3.382857-15.122285-5.376a55.259429 55.259429 0 0 1-12.251429-6.747429l12.745143-20.242285c1.664 1.152 4.041143 2.377143 7.131429 3.620571s6.454857 2.413714 10.130285 3.492572c3.657143 1.097143 7.497143 2.029714 11.501715 2.870857s7.753143 1.243429 11.245714 1.243428c8.813714 0 15.872-1.718857 21.12-5.12s8.027429-9.216 8.374857-17.371428v-141.001143h30.500571zM625.078857 918.637714c0 6.656-1.371429 13.129143-4.132571 19.382857s-6.619429 11.757714-11.629715 16.493715-11.172571 8.539429-18.505142 11.373714a68.955429 68.955429 0 0 1-24.996572 4.242286c-4.004571 0-8.118857-0.219429-12.379428-0.621715s-8.557714-1.133714-12.873143-2.121142c-4.333714-1.005714-8.466286-2.377143-12.379429-4.132572s-7.296-3.876571-10.130286-6.381714l5.248-21.504c2.322286 1.334857 5.284571 2.633143 8.868572 3.876571s7.277714 2.413714 11.117714 3.492572c3.821714 1.097143 7.661714 1.956571 11.501714 2.633143 3.821714 0.658286 7.405714 1.005714 10.752 1.005714 10.166857 0 17.956571-2.377143 23.369143-7.131429s8.118857-11.794286 8.118857-21.12c0-5.668571-1.92-10.496-5.741714-14.500571-3.84-4.004571-8.630857-7.625143-14.372571-10.88s-11.958857-6.491429-18.633143-9.746286a112.877714 112.877714 0 0 1-18.742857-11.501714 59.684571 59.684571 0 0 1-14.500572-15.616c-3.84-5.997714-5.741714-13.494857-5.741714-22.491429 0-8.155429 1.499429-15.414857 4.498286-21.741714s7.04-11.721143 12.123428-16.128 11.008-7.789714 17.755429-10.130286 13.878857-3.492571 21.376-3.492571c7.661714 0 15.414857 0.713143 23.241143 2.121143 7.826286 1.408 14.153143 3.712 18.998857 6.875428a243.382857 243.382857 0 0 1-3.492572 7.131429l-3.748571 7.241143c-1.170286 2.249143-2.176 4.132571-2.998857 5.632a23.094857 23.094857 0 0 1-1.499429 2.505143c-1.005714-0.493714-2.121143-1.152-3.382857-1.993143s-3.053714-1.664-5.376-2.505143a38.528 38.528 0 0 0-9.252571-1.755429 87.424 87.424 0 0 0-14.756572 0.256c-3.346286 0.347429-6.491429 1.28-9.508571 2.870857s-5.686857 3.529143-8.009143 5.869715a26.441143 26.441143 0 0 0-5.504 7.881143 20.114286 20.114286 0 0 0-1.993143 8.374857c0 6.656 1.901714 12.032 5.741714 16.128 3.821714 4.096 8.576 7.661714 14.244572 10.752 5.668571 3.090286 11.812571 6.089143 18.505143 8.996571 6.656 2.907429 12.873143 6.473143 18.633143 10.624s10.532571 9.380571 14.372571 15.616c3.876571 6.253714 5.814857 14.281143 5.814857 24.118857z" fill="#FFFFFF" p-id="75645"></path><path d="M356.571429 347.428571v-73.142857c0-10.075429 8.192-18.285714 18.285714-18.285714a18.285714 18.285714 0 1 0 0-36.571429c-30.244571 0-54.857143 24.612571-54.857143 54.857143v73.142857c0 20.169143-16.402286 36.571429-36.571429 36.571429a18.285714 18.285714 0 1 0 0 36.571429c20.169143 0 36.571429 16.402286 36.571429 36.571428v73.142857c0 30.244571 24.612571 54.857143 54.857143 54.857143a18.285714 18.285714 0 1 0 0-36.571428c-10.093714 0-18.285714-8.210286-18.285714-18.285715v-73.142857c0-21.942857-9.910857-41.435429-25.270858-54.857143a72.685714 72.685714 0 0 0 25.270858-54.857143z" fill="#EEAF4B" p-id="75646"></path><path d="M502.857143 338.285714m-27.428572 0a27.428571 27.428571 0 1 0 54.857143 0 27.428571 27.428571 0 1 0-54.857143 0Z" fill="#EEAF4B" p-id="75647"></path><path d="M722.285714 384c-20.169143 0-36.571429-16.402286-36.571428-36.571429v-73.142857c0-30.244571-24.612571-54.857143-54.857143-54.857143a18.285714 18.285714 0 1 0 0 36.571429c10.093714 0 18.285714 8.210286 18.285714 18.285714v73.142857c0 21.942857 9.910857 41.435429 25.270857 54.857143a72.685714 72.685714 0 0 0-25.270857 54.857143v73.142857c0 10.075429-8.192 18.285714-18.285714 18.285715a18.285714 18.285714 0 1 0 0 36.571428c30.244571 0 54.857143-24.612571 54.857143-54.857143v-73.142857c0-20.169143 16.402286-36.571429 36.571428-36.571428a18.285714 18.285714 0 1 0 0-36.571429zM502.857143 438.857143a18.285714 18.285714 0 0 0-18.285714 18.285714v54.857143a18.285714 18.285714 0 1 0 36.571428 0v-54.857143a18.285714 18.285714 0 0 0-18.285714-18.285714z" fill="#EEAF4B" p-id="75648"></path></svg>