<?xml version="1.0" standalone="no"?><!DOCTYPE svg PUBLIC "-//W3C//DTD SVG 1.1//EN" "http://www.w3.org/Graphics/SVG/1.1/DTD/svg11.dtd"><svg t="1551327536070" class="icon" style="" viewBox="0 0 1024 1024" version="1.1" xmlns="http://www.w3.org/2000/svg" p-id="1881" xmlns:xlink="http://www.w3.org/1999/xlink" width="16" height="16"><defs><style type="text/css"></style></defs><path d="M896 344.746667h-13.653333l6.826666-174.08c3.413333-59.733333-39.253333-107.52-92.16-107.52H264.533333c-54.613333 0-95.573333 49.493333-92.16 107.52l1.706667 49.493333h-15.36c-56.32 0-98.986667 49.493333-95.573333 109.226667l30.72 525.653333c3.413333 51.2 46.08 93.866667 97.28 93.866667h675.84c51.2 0 93.866667-40.96 97.28-93.866667L989.866667 450.56c3.413333-58.026667-39.253333-105.813333-93.866667-105.813333zM663.893333 713.386667h-92.16v93.866666c0 22.186667-18.773333 40.96-40.96 40.96-22.186667 0-40.96-18.773333-40.96-40.96v-93.866666h-92.16c-22.186667 0-40.96-18.773333-40.96-42.666667s17.066667-42.666667 40.96-42.666667h93.866667V529.066667c0-23.893333 18.773333-44.373333 40.96-44.373334 23.893333 0 42.666667 20.48 40.96 44.373334v98.986666H665.6c22.186667 0 40.96 18.773333 40.96 42.666667-1.706667 23.893333-20.48 42.666667-42.666667 42.666667z m133.12-368.64H426.666667l-105.813334-110.933334c-8.533333-8.533333-18.773333-13.653333-30.72-13.653333h-29.013333l-1.706667-49.493333c0-5.12 3.413333-10.24 8.533334-10.24h525.653333c5.12 0 8.533333 5.12 8.533333 10.24l-5.12 174.08z" p-id="1882" fill="#afcd50"></path></svg>