<?xml version="1.0" standalone="no"?><!DOCTYPE svg PUBLIC "-//W3C//DTD SVG 1.1//EN" "http://www.w3.org/Graphics/SVG/1.1/DTD/svg11.dtd"><svg t="1551330375890" class="icon" style="" viewBox="0 0 1024 1024" version="1.1" xmlns="http://www.w3.org/2000/svg" p-id="4261" xmlns:xlink="http://www.w3.org/1999/xlink" width="16" height="16"><defs><style type="text/css"></style></defs><path d="M516.946138 934.67234c-9.412085 4.967489-20.697872 4.967489-30.109958 0L97.650819 729.175149l146.105191-76.691064 212.904851 112.857872a96.452085 96.452085 0 0 0 90.482383 0l212.730553-112.748936 146.214128 77.845788L516.946138 934.67234zM240.29184 424.415319l216.390809 114.404766a96.996766 96.996766 0 0 0 45.20851 11.242213 97.171064 97.171064 0 0 0 45.208511-11.242213l216.172936-114.317617 142.706383 77.344681-389.163575 206.259745a31.809362 31.809362 0 0 1-29.84851 0L97.781542 499.95166 240.313627 424.415319zM486.945117 68.237617a32.13617 32.13617 0 0 1 29.913872 0.021787l389.163574 207.545192-389.163574 205.758638c-9.216 4.923915-20.676085 4.923915-29.892085 0L97.759755 274.03983 486.945117 68.237617z m449.252766 603.615319l-106.866383-56.08034 106.953531-56.690383a65.579574 65.579574 0 0 0 34.859575-58.171915 65.536 65.536 0 0 0-34.837787-58.171915l-103.620085-54.90383 103.598297-54.794893a65.470638 65.470638 0 0 0 34.859575-58.128341 65.470638 65.470638 0 0 0-34.859575-58.106553L547.077883 11.002553a98.325787 98.325787 0 0 0-90.417022 0L67.497287 216.804766A65.470638 65.470638 0 0 0 32.681287 274.911319a65.579574 65.579574 0 0 0 34.816 58.171915L171.073797 387.812766l-103.57651 54.90383A65.536 65.536 0 0 0 32.681287 500.888511c0 24.488851 13.333787 46.777191 34.794213 58.171915l106.975319 56.690383-106.844596 56.058553A65.252766 65.252766 0 0 0 32.681287 729.785191a65.14383 65.14383 0 0 0 34.924936 57.954043l389.185362 204.277106a96.974979 96.974979 0 0 0 90.199149 0l389.163574-204.277106a65.187404 65.187404 0 0 0 34.946723-57.954043c0-24.423489-13.399149-46.624681-34.903148-57.932255z" fill="#81FC0C" p-id="4262"></path></svg>