<svg t="1629900845769" class="icon" viewBox="0 0 1024 1024" version="1.1" xmlns="http://www.w3.org/2000/svg" p-id="14235" width="16" height="16"><path d="M512 0a512 512 0 1 1-512 512 512 512 0 0 1 512-512z m247.222857 360.594286l-52.662857 53.394285a237.714286 237.714286 0 0 1 24.868571 102.4 219.428571 219.428571 0 0 1-109.714285 190.171429 212.845714 212.845714 0 0 1-109.714286 29.257143v-109.714286l-146.285714 146.285714 146.285714 146.285715v-109.714286a281.6 281.6 0 0 0 146.285714-40.228571 280.137143 280.137143 0 0 0 105.325715-105.325715 286.72 286.72 0 0 0 40.96-146.285714 281.6 281.6 0 0 0-12.434286-81.92 252.342857 252.342857 0 0 0-32.914286-74.605714zM512 296.96v109.714286l146.285714-146.285715-146.285714-146.285714v109.714286a286.72 286.72 0 0 0-146.285714 40.96 280.137143 280.137143 0 0 0-106.057143 104.594286 281.6 281.6 0 0 0-40.228572 146.285714 285.257143 285.257143 0 0 0 12.434286 81.92 292.571429 292.571429 0 0 0 34.377143 73.142857l52.662857-53.394286A207.725714 207.725714 0 0 1 292.571429 516.388571a212.845714 212.845714 0 0 1 29.257142-109.714285A219.428571 219.428571 0 0 1 512 296.96z" fill="#5089F7" p-id="14236"></path></svg>
