<?xml version="1.0" standalone="no"?><!DOCTYPE svg PUBLIC "-//W3C//DTD SVG 1.1//EN" "http://www.w3.org/Graphics/SVG/1.1/DTD/svg11.dtd"><svg t="1551328135057" class="icon" style="" viewBox="0 0 1024 1024" version="1.1" xmlns="http://www.w3.org/2000/svg" p-id="77044" xmlns:xlink="http://www.w3.org/1999/xlink" width="16" height="16"><defs><style type="text/css"></style></defs><path d="M735.13088 524.647565 485.206939 524.647565c-15.338214 0-27.769326 12.409418-27.769326 27.725937s12.431113 27.747632 27.769326 27.747632l249.923941 0c15.338214 0 27.769326-12.431113 27.769326-27.747632S750.469094 524.647565 735.13088 524.647565zM735.13088 663.342336 485.206939 663.342336c-15.338214 0-27.769326 12.409418-27.769326 27.725937 0 15.338214 12.431113 27.747632 27.769326 27.747632l249.923941 0c15.338214 0 27.769326-12.409418 27.769326-27.747632C762.900207 675.773449 750.469094 663.342336 735.13088 663.342336zM735.13088 135.37801c-3.449471 0-333.231922 0-333.231922 0-58.749482 0-111.077307 53.911545-111.077307 111.077307l-32.086589 0.759318c-58.749482 0-106.760044 53.152227-106.760044 110.31799L151.975017 912.91916c0 57.165763 52.327825 111.077307 111.077307 111.077307l416.539902 0c58.749482 0 111.055612-53.911545 111.055612-111.077307l27.769326 0c58.749482 0 111.077307-53.911545 111.077307-111.077307L929.494473 413.071279l0-54.88781L735.13088 135.37801zM679.592226 968.457814 263.052324 968.457814c-29.157793 0-55.538654-27.248652-55.538654-55.538654L207.51367 357.532625c0-28.290002 23.755792-54.627472 52.89189-54.627472L290.821651 301.993971l0 499.847882c0 57.165763 52.327825 111.077307 111.077307 111.077307l333.231922 0C735.13088 941.209162 708.728324 968.457814 679.592226 968.457814zM873.955819 801.841853c0 28.290002-26.380861 55.538654-55.538654 55.538654L401.898958 857.380507c-29.157793 0-55.538654-27.248652-55.538654-55.538654L346.360305 246.455318c0-28.290002 26.380861-55.538654 55.538654-55.538654l277.693268 0c-0.455591 63.956231 0 111.77154 0 111.77154 0 57.686437 51.915625 110.383074 111.055612 110.383074 0 0 29.50491 0 83.30798 0L873.955819 801.841853zM790.669533 357.532625c-29.569994 0-55.538654-53.737986-55.538654-82.570357 0 0 0-29.222878 0-83.199506L735.13088 191.719371l138.824939 165.813253L790.669533 357.532625z" p-id="77045" fill="#afcd50"></path></svg>