<?xml version="1.0" standalone="no"?><!DOCTYPE svg PUBLIC "-//W3C//DTD SVG 1.1//EN" "http://www.w3.org/Graphics/SVG/1.1/DTD/svg11.dtd"><svg t="1551326477636" class="icon" style="" viewBox="0 0 1024 1024" version="1.1" xmlns="http://www.w3.org/2000/svg" p-id="1063" xmlns:xlink="http://www.w3.org/1999/xlink" width="16" height="16"><defs><style type="text/css"></style></defs><path d="M937.06199 621.688013 1024 621.688013 1024 402.25 937.062001 402.25C848.873994 402.25 827.874007 351.312041 890.062039 289.061955L951.623997 227.499997 796.435978 72.374032 734.935972 133.874038C672.623933 196.186077 621.623921 175.062083 621.809981 86.998083 621.809981 86.748125 621.684029 86.62207 621.684029 86.436112L621.684029 0 402.344 0 402.344 87.25C402.094042 175.125993 351.282035 196.125981 289.061952 133.875997L227.529997 72.37599 72.406016 227.500032 133.906022 289.06199C196.188058 351.311974 175.062016 402.250035 87.030067 402.250035L0 402.250035 0 621.688033 87.032 621.688033C175.064051 621.688033 196.188045 672.625992 133.907955 734.93803L72.407949 796.438036 227.533914 951.626056 289.065869 890.064097C351.283904 827.876065 402.097856 848.876052 402.347917 936.690094L402.347917 1024 621.691919 1024 621.691919 937.561999C621.691919 937.373993 621.817866 937.185987 621.817866 937.000028 621.629865 848.938076 672.629878 827.873987 734.943862 890.062019L796.443868 951.623977 951.631882 796.435958 890.069924 734.935951C827.876045 672.625971 848.876032 621.688013 937.06199 621.688013L937.06199 621.688013ZM512 704C405.967974 704 320 617.999974 320 512 320 406.000026 405.967974 320 512 320 617.999974 320 704 406.000026 704 512 704 617.999974 617.999974 704 512 704L512 704Z" p-id="1064" fill="#1296db"></path></svg>