<?xml version="1.0" standalone="no"?><!DOCTYPE svg PUBLIC "-//W3C//DTD SVG 1.1//EN" "http://www.w3.org/Graphics/SVG/1.1/DTD/svg11.dtd"><svg t="1551328178927" class="icon" style="" viewBox="0 0 1024 1024" version="1.1" xmlns="http://www.w3.org/2000/svg" p-id="77878" xmlns:xlink="http://www.w3.org/1999/xlink" width="16" height="16"><defs><style type="text/css"></style></defs><path d="M804.57143 621.714286q0 14.848-10.825143 25.746286l-256 256q-10.825143 10.825143-25.746286 10.825143t-25.746286-10.825143l-256-256q-10.825143-10.825143-10.825143-25.746286t10.825143-25.746286 25.746286-10.825143l512 0q14.848 0 25.746286 10.825143t10.825143 25.746286zM804.57143 402.285714q0 14.848-10.825143 25.746286t-25.746286 10.825143l-512 0q-14.848 0-25.746286-10.825143t-10.825143-25.746286 10.825143-25.746286l256-256q10.825143-10.825143 25.746286-10.825143t25.746286 10.825143l256 256q10.825143 10.825143 10.825143 25.746286z" p-id="77879"></path></svg>