<?xml version="1.0" standalone="no"?><!DOCTYPE svg PUBLIC "-//W3C//DTD SVG 1.1//EN" "http://www.w3.org/Graphics/SVG/1.1/DTD/svg11.dtd"><svg t="1551330939630" class="icon" style="" viewBox="0 0 1024 1024" version="1.1" xmlns="http://www.w3.org/2000/svg" p-id="26357" xmlns:xlink="http://www.w3.org/1999/xlink" width="16" height="16"><defs><style type="text/css"></style></defs><path d="M642.56 960c-148.928 0-269.568-122.56-269.568-273.792 0-151.168 120.64-273.792 269.504-273.792 148.864 0 269.504 122.624 269.504 273.792 0 151.232-120.64 273.792-269.44 273.792z m103.168-312.96l-119.04-79.68a33.28 33.28 0 0 0-38.4 0 45.056 45.056 0 0 0-19.264 38.528v158.976a45.056 45.056 0 0 0 19.2 38.528 33.28 33.28 0 0 0 38.528 0l119.04-79.616a48 48 0 0 0 0-76.8z m-421.76 39.168A323.648 323.648 0 0 0 474.368 960h-248.32A98.816 98.816 0 0 1 128 860.416V163.584C128 108.544 171.904 64 225.984 64h489.984c54.144 0 98.048 44.544 98.048 99.584v250.688a313.408 313.408 0 0 0-324.672-12.096 323.52 323.52 0 0 0-165.376 284.032zM242.304 176v56h457.344V176H242.304z m0 112v56h285.888V288H242.304z" fill="blue" p-id="26358"></path></svg>
