<?xml version="1.0" standalone="no"?><!DOCTYPE svg PUBLIC "-//W3C//DTD SVG 1.1//EN" "http://www.w3.org/Graphics/SVG/1.1/DTD/svg11.dtd"><svg t="1551328349531" class="icon" style="" viewBox="0 0 1024 1024" version="1.1" xmlns="http://www.w3.org/2000/svg" p-id="84549" xmlns:xlink="http://www.w3.org/1999/xlink" width="16" height="16"><defs><style type="text/css"></style></defs><path d="M512 0C229.376 0 0 229.376 0 512s229.376 512 512 512 512-229.376 512-512S794.624 0 512 0zM236.544 413.696c0-7.68 7.68-15.36 15.36-15.36h340.48c9.216 0 15.36-6.144 15.36-15.36V297.472c0-13.824 15.36-19.968 24.576-10.752l150.016 148.48c9.216 9.216 3.072 26.112-10.752 26.112H251.904c-9.216 0-15.36-7.68-15.36-16.896v-30.72z m550.912 196.608c0 7.68-7.68 15.36-15.36 15.36H430.08c-9.216 0-15.36 6.144-15.36 15.36v84.992c0 13.824-15.36 19.968-24.576 10.752l-148.48-146.944c-9.216-9.216-3.072-26.112 10.752-26.112h518.656c9.216 0 15.36 7.68 16.896 15.36v31.232z" p-id="84550" fill="#33b5af"></path></svg>