<?xml version="1.0" standalone="no"?><!DOCTYPE svg PUBLIC "-//W3C//DTD SVG 1.1//EN" "http://www.w3.org/Graphics/SVG/1.1/DTD/svg11.dtd"><svg t="1551610577127" class="icon" style="" viewBox="0 0 1084 1024" version="1.1" xmlns="http://www.w3.org/2000/svg" p-id="7126" xmlns:xlink="http://www.w3.org/1999/xlink" width="16.9375" height="16"><defs><style type="text/css"></style></defs><path d="M595.124356 1023.999398a65.054079 65.054079 0 0 1-65.234785-64.752903V485.676891A65.054079 65.054079 0 0 1 595.124356 420.923988h423.93575A65.054079 65.054079 0 0 1 1084.234656 485.676891v473.569604A65.054079 65.054079 0 0 1 1019.060106 1023.999398H595.124356z m-529.949806 0A65.054079 65.054079 0 0 1 0 959.246495v-210.461994a65.054079 65.054079 0 0 1 65.17455-64.752903h317.98193a65.054079 65.054079 0 0 1 65.17455 64.752903v210.461994A65.054079 65.054079 0 0 1 383.15648 1023.999398H65.17455z m0-420.923988A65.054079 65.054079 0 0 1 0 538.322507V64.752903A65.054079 65.054079 0 0 1 65.17455 0h317.98193a65.054079 65.054079 0 0 1 65.17455 64.752903v473.569604a65.054079 65.054079 0 0 1-65.17455 64.752903H65.17455zM595.124356 339.9678a65.054079 65.054079 0 0 1-65.234785-64.752903V64.752903A65.054079 65.054079 0 0 1 595.124356 0h423.93575A65.054079 65.054079 0 0 1 1084.234656 64.752903v210.461994a65.054079 65.054079 0 0 1-65.17455 64.752903H595.124356z" p-id="7127" fill="#d4237a"></path></svg>