<?xml version="1.0" standalone="no"?><!DOCTYPE svg PUBLIC "-//W3C//DTD SVG 1.1//EN" "http://www.w3.org/Graphics/SVG/1.1/DTD/svg11.dtd"><svg t="1551328278651" class="icon" style="" viewBox="0 0 1024 1024" version="1.1" xmlns="http://www.w3.org/2000/svg" p-id="2233" xmlns:xlink="http://www.w3.org/1999/xlink" width="16" height="16"><defs><style type="text/css"></style></defs><path d="M928 256h-832v-59.136C96 158.848 126.848 128 164.928 128h694.144c38.08 0 68.928 30.912 68.928 68.928V256z m0 64v507.072c0 38.016-30.848 68.864-68.928 68.864H164.928A68.928 68.928 0 0 1 96 827.072V319.936h832zM431.232 562.688a31.872 31.872 0 0 0-7.552-12.096L333.12 460.16a32 32 0 1 0-45.248 45.248l72.128 72.128-69.376 69.44a32 32 0 0 0 45.248 45.248l90.496-90.496a32 32 0 0 0 4.864-39.04zM544 640a32 32 0 0 0 0 64h128a32 32 0 0 0 0-64h-128z" p-id="2234"></path></svg>