<?xml version="1.0" standalone="no"?><!DOCTYPE svg PUBLIC "-//W3C//DTD SVG 1.1//EN" "http://www.w3.org/Graphics/SVG/1.1/DTD/svg11.dtd"><svg t="1557058634504" class="icon" style="" viewBox="0 0 1298 1024" version="1.1" xmlns="http://www.w3.org/2000/svg" p-id="1989" xmlns:xlink="http://www.w3.org/1999/xlink" width="20.28125" height="16"><defs><style type="text/css"></style></defs><path d="M450.156671 71.91145v268.224342H503.37008c516.313882 0 674.515907 344.448954 719.100113 578.875591a826.965131 826.965131 0 0 0-634.9654-287.640045 586.066593 586.066593 0 0 0-71.910012 4.314601L452.313971 647.19154v304.898449S71.910011 499.056917 71.910011 492.585016 450.156671 71.91145 450.156671 71.91145m0-71.910012a71.910011 71.910011 0 0 0-53.213408 23.011204C0 454.47271 0 455.91091 0 492.585016s0 33.078605 397.662363 503.37008a71.910011 71.910011 0 0 0 127.28072-46.022408V706.15775a562.336289 562.336289 0 0 1 62.56171 0 759.36972 759.36972 0 0 1 579.594691 263.190641 71.910011 71.910011 0 0 0 127.280721-63.99991c-49.617908-235.145737-215.730034-627.055299-772.313523-636.4036V71.91145a71.910011 71.910011 0 0 0-71.910011-71.910012z" p-id="1990" fill="#f4ea2a"></path></svg>