<?xml version="1.0" standalone="no"?><!DOCTYPE svg PUBLIC "-//W3C//DTD SVG 1.1//EN" "http://www.w3.org/Graphics/SVG/1.1/DTD/svg11.dtd"><svg t="1551611010721" class="icon" style="" viewBox="0 0 1024 1024" version="1.1" xmlns="http://www.w3.org/2000/svg" p-id="8634" xmlns:xlink="http://www.w3.org/1999/xlink" width="16" height="16"><defs><style type="text/css"></style></defs><path d="M163.52768 90.12736c-16.03072 0-29.53216 12.65664-29.53216 29.53216v697.78432c0 16.03072 12.65664 29.53216 29.53216 29.53216h313.87648c46.40256 57.3696 118.12352 92.81024 198.28736 86.06208 113.05984-8.43776 204.1856-99.5584 213.46304-211.77856 10.12736-117.27872-67.50208-217.68704-173.81376-244.68992V293.46816c0-7.59296-2.52928-13.50144-7.58784-19.4048 0-0.8448-0.8448-0.8448-0.8448-1.6896L534.77888 98.56s-0.8448-0.8448-1.6896-0.8448c-5.90336-4.21888-12.65664-7.59296-19.4048-7.59296l-350.1568 0.00512z m58.22464 58.21952h261.56032v174.65344h174.65856v145.1264c-128.25088 0-232.87296 104.6272-232.87296 232.87296 0 31.22176 6.74816 60.7488 16.87552 87.75168H221.75232c-16.03072 0-29.53216-13.50144-29.53216-29.53216V177.02912c0.8448-15.18592 13.50144-28.68736 29.53216-28.68224z m319.77984 42.18368L615.7824 265.6256h-74.25024V190.53056z m114.74944 336.66048c98.71872-0.8448 178.02752 77.6192 177.18784 176.33792-1.6896 94.49984-78.46912 171.27936-172.96896 172.96896-98.71872 1.6896-178.02752-77.62432-177.18784-177.18784 1.6896-94.49984 78.46912-171.27936 172.96896-172.11904z m97.02912 95.33952L657.9712 717.8752l-65.81248-66.65728-42.18368 42.1888 86.90176 87.75168 21.09952 19.39968 21.08928-19.39968 117.27872-117.28384-43.0336-41.344z" p-id="8635" fill="#b1ac2c"></path></svg>