<?xml version="1.0" standalone="no"?><!DOCTYPE svg PUBLIC "-//W3C//DTD SVG 1.1//EN" "http://www.w3.org/Graphics/SVG/1.1/DTD/svg11.dtd"><svg t="1553260557788" class="icon" style="" viewBox="0 0 1024 1024" version="1.1" xmlns="http://www.w3.org/2000/svg" p-id="4019" xmlns:xlink="http://www.w3.org/1999/xlink" width="16" height="16"><defs><style type="text/css"></style></defs><path d="M512 171.008C173.714286 171.008 0 512 0 512s131.072 340.992 512 340.992c344.941714 0 512-339.675429 512-339.675429S855.625143 171.008 512 171.008zM512.804571 725.065143C389.12 725.065143 299.666286 631.881143 299.666286 512c0-119.881143 89.453714-213.138286 213.138286-213.138286C636.489143 298.861714 725.869714 392.045714 725.869714 512 725.869714 631.881143 636.489143 725.065143 512.804571 725.065143z" p-id="4020"></path><path d="M512.804571 384.073143C442.075429 384.219429 384.877714 443.465143 384.877714 512c0 68.461714 57.197714 127.853714 127.853714 127.853714S640.658286 580.461714 640.658286 512C640.658286 443.465143 583.460571 383.926857 512.804571 384.073143z" fill="red" p-id="4021"></path></svg>
